<svg xmlns="http://www.w3.org/2000/svg" x="0px" y="0px" width="100%" height="100%" viewBox="0 0 48 48">
    <path fill="#73a1b2"
        d="M41.562,20.27L29.446,7.583L20,7.292L5.832,19.916c0.673,7.072,0.878,14.002,0.612,21.1	c-0.031,0.813,0.011,1.785,0.701,2.216c0.376,0.235,0.849,0.234,1.293,0.226c8.895-0.167,22.238,0.383,31.128,0.042	c0.458-0.018,0.95-0.047,1.311-0.331c0.527-0.414,0.565-1.186,0.556-1.856C41.337,33.454,41.659,28.128,41.562,20.27z">
    </path>
    <path fill="#010101"
        d="M39.565,44c-3.04,0-6.591-0.024-10.303-0.05c-7.01-0.047-14.957-0.103-20.815,0.008	c-0.444,0.009-1.052,0.02-1.567-0.302c-1.012-0.632-0.959-2.052-0.937-2.659c0.265-7.05,0.065-13.931-0.609-21.035	c-0.025-0.275,0.176-0.519,0.451-0.545c0.255-0.027,0.52,0.174,0.545,0.45c0.679,7.148,0.879,14.072,0.613,21.167	c-0.027,0.716,0.008,1.487,0.466,1.773c0.244,0.153,0.596,0.161,1.019,0.151c5.871-0.111,13.825-0.056,20.842-0.008	c3.71,0.025,7.258,0.05,10.296,0.05c0.334,0,0.75-0.025,1.003-0.224c0.333-0.262,0.372-0.855,0.365-1.458	c-0.049-3.936,0.009-7.292,0.064-10.536c0.056-3.237,0.112-6.585,0.064-10.507C41.06,20,41.28,19.773,41.557,19.77	c0.316-0.017,0.503,0.218,0.506,0.494c0.049,3.937-0.009,7.292-0.064,10.537c-0.056,3.237-0.112,6.585-0.064,10.507	c0.007,0.578,0.02,1.653-0.748,2.256C40.692,43.95,40.061,44,39.565,44z">
    </path>
    <path fill="#c56528"
        d="M31.47,36.631c-1.418-1.58-2.912-2.992-4.474-4.429c-0.049-0.045-7.406-7.836-7.47-7.855	l-5.068-4.753l-1.924,1.922l4.45,5.083c1.035,1.163,9.569,9.875,10.604,11.039c0.327,0.368,0.656,0.737,1.022,1.066	c0.579,0.521,1.366,0.956,2.109,0.725c0.425-0.132,0.758-0.461,1.035-0.81c0.146-0.184,0.284-0.383,0.33-0.613	C32.187,37.496,31.819,37.02,31.47,36.631z">
    </path>
    <path fill="#1e4384"
        d="M44.623,17.581c0.377-0.41,0.341-1.046-0.072-1.421c-0.851-0.771-2.159-2.07-3.57-3.098	c-4.762-3.469-8.862-5.718-13.383-8.756c-1.331-0.894-2.814-1.853-4.403-1.641c-0.942,0.125-1.776,0.652-2.575,1.166	C15.412,7.176,9.623,10.852,4.348,15.056c-0.732,0.584-1.389,1.296-1.768,2.152c-0.047,0.107-0.078,0.219-0.073,0.335	c0.014,0.307,0.27,0.541,0.506,0.738c0.411,0.343,0.852,0.452,1.264,0.794c0.33,0.275,0.676,0.558,1.093,0.655	c0.952,0.222,1.808-0.566,2.504-1.252c4.089-4.026,12.793-9.407,16.136-10.427c1.835,0.528,2.797,1.135,4.178,1.9	c1.432,0.794,11.577,7.843,12.801,9.915c0.09,0.153,0.189,0.321,0.356,0.38c0.221,0.078,0.453-0.068,0.639-0.21	C42.895,19.344,43.81,18.466,44.623,17.581z">
    </path>
    <path fill="#010101"
        d="M41.473,20.77c-0.095,0-0.193-0.015-0.294-0.05c-0.339-0.12-0.508-0.407-0.62-0.597	c-1.135-1.922-11.144-8.918-12.612-9.732l-0.475-0.266c-1.103-0.618-1.98-1.11-3.455-1.55c-3.409,1.114-11.871,6.4-15.791,10.26	c-0.637,0.627-1.703,1.678-2.968,1.382c-0.54-0.125-0.962-0.476-1.3-0.757c-0.166-0.138-0.351-0.236-0.547-0.34	c-0.221-0.117-0.472-0.25-0.718-0.455c-0.23-0.193-0.661-0.552-0.685-1.101c-0.01-0.178,0.027-0.362,0.113-0.557	c0.372-0.838,1.016-1.626,1.915-2.343c5.044-4.021,10.635-7.61,15.568-10.777l0.743-0.478c0.802-0.514,1.71-1.098,2.779-1.24	c1.828-0.239,3.515,0.893,4.749,1.722c1.776,1.194,3.521,2.286,5.207,3.342c2.603,1.629,5.294,3.314,8.191,5.425	c1.132,0.824,2.171,1.793,3.006,2.572c0.221,0.206,0.424,0.396,0.605,0.561c0.302,0.273,0.478,0.646,0.496,1.051	c0.019,0.4-0.12,0.783-0.392,1.078c0,0,0,0,0,0c-0.917,0.997-1.853,1.867-2.704,2.516C42.154,20.536,41.847,20.77,41.473,20.77z M24.011,7.553c0.047,0,0.093,0.006,0.139,0.02c1.674,0.482,2.664,1.038,3.812,1.681l0.47,0.263	c1.439,0.798,11.697,7.911,12.989,10.098c0.027,0.046,0.066,0.114,0.097,0.152c0.01-0.02,0.067-0.052,0.165-0.126	c0.806-0.613,1.695-1.441,2.573-2.396l0,0c0.089-0.098,0.135-0.224,0.129-0.356c-0.006-0.136-0.066-0.263-0.169-0.356	c-0.185-0.168-0.392-0.361-0.616-0.57c-0.814-0.76-1.829-1.707-2.911-2.495c-2.87-2.09-5.546-3.766-8.134-5.386	c-1.693-1.06-3.444-2.156-5.235-3.359C26.157,3.94,24.72,2.968,23.26,3.161c-0.849,0.113-1.657,0.632-2.37,1.091l-0.744,0.478	C15.232,7.883,9.664,11.458,4.66,15.447c-0.771,0.615-1.318,1.276-1.623,1.964c-0.028,0.065-0.03,0.096-0.03,0.106	c0.005,0.112,0.239,0.307,0.327,0.38c0.165,0.138,0.35,0.236,0.546,0.339c0.221,0.117,0.472,0.25,0.718,0.455	c0.283,0.236,0.577,0.48,0.887,0.552c0.678,0.153,1.376-0.468,2.04-1.122c4.14-4.076,12.856-9.485,16.341-10.548	C23.912,7.56,23.962,7.553,24.011,7.553z M44.623,17.582h0.01H44.623z">
    </path>
    <path fill="#bcbcbc"
        d="M26.14,26.27c-2.51,2.718-4.727,5.037-7.443,7.548c-0.587,0.543-1.185,1.088-1.625,1.755	c-0.44,0.667-0.713,1.483-0.573,2.27c0.14,0.787,0.764,1.513,1.557,1.608c0.915,0.11,1.714-0.577,2.373-1.221	c3.215-3.136,5.812-5.978,8.784-9.346L26.14,26.27z">
    </path>
    <path fill="#010101"
        d="M25.787,25.917c-1.65,1.785-3.317,3.554-5.049,5.261c-0.864,0.852-1.748,1.682-2.635,2.509	c-0.811,0.756-1.598,1.579-1.959,2.652c-0.574,1.707,0.539,4.05,2.617,3.564c1.034-0.242,1.808-1.105,2.534-1.82	c0.901-0.888,1.789-1.789,2.664-2.702c1.919-2.002,3.773-4.064,5.608-6.142c0.425-0.481-0.28-1.191-0.707-0.707	c-2.804,3.175-5.662,6.305-8.698,9.262c-0.611,0.595-1.564,1.559-2.485,1.004c-0.923-0.556-0.812-1.799-0.379-2.626	c0.487-0.929,1.342-1.615,2.096-2.319c0.747-0.697,1.483-1.405,2.209-2.124c1.675-1.658,3.291-3.374,4.89-5.105	C26.93,26.152,26.225,25.443,25.787,25.917L25.787,25.917z">
    </path>
    <path fill="#bcbcbc"
        d="M33.222,18.99c-2.451-0.818-4.695,0.041-6.456,1.932c-0.342,0.368-0.646,0.777-0.851,1.236	c-0.482,1.079-0.374,2.364,0.127,3.435c0.501,1.07,1.362,1.941,2.33,2.617c0.906,0.633,1.935,1.12,3.031,1.27	s2.262-0.057,3.162-0.699c1.024-0.73,1.617-1.949,1.836-3.187s0.103-2.51-0.044-3.759c-1.143,0.951-2.233,1.965-3.264,3.036	c-0.562,0.057-1.134,0.005-1.677-0.151c-0.55-0.158-1.098-0.45-1.374-0.95c-0.516-0.933,0.121-2.087,0.864-2.852	C31.607,20.197,32.407,19.746,33.222,18.99z">
    </path>
    <path fill="#010101"
        d="M36.858,21.835c-0.051-0.441-0.504-0.646-0.854-0.354c-1.092,0.913-2.132,1.882-3.125,2.901	c-1.255,0.033-3.054-0.464-2.355-2.057c0.564-1.285,1.923-2.001,2.945-2.891c0.013-0.008,0.022-0.019,0.033-0.028	c0.024-0.021,0.05-0.041,0.074-0.062c0.013-0.012,0.016-0.025,0.027-0.037c0.001-0.001,0.002-0.002,0.003-0.004	c0.154-0.169,0.15-0.366,0.055-0.525c-0.051-0.119-0.148-0.22-0.305-0.27c-1.928-0.615-3.949-0.295-5.599,0.882	c-1.774,1.265-3.011,3.073-2.536,5.326c0.44,2.088,2.243,3.748,4.106,4.634c1.872,0.89,4.198,1.001,5.851-0.416	C37.216,27.185,37.139,24.26,36.858,21.835z M35.186,27.406c-1.018,1.582-2.968,1.91-4.666,1.354	c-1.656-0.542-3.309-1.818-4.046-3.421c-0.385-0.836-0.501-1.839-0.204-2.72c0.279-0.826,0.927-1.491,1.579-2.044	c1.234-1.047,2.726-1.514,4.263-1.312c-0.827,0.651-1.685,1.268-2.25,2.18c-0.604,0.973-0.756,2.262,0.165,3.096	c0.425,0.385,0.976,0.61,1.53,0.731c0.531,0.117,1.424,0.304,1.89-0.046c0.549-0.412,1.015-1.026,1.519-1.497	c0.323-0.302,0.661-0.586,0.994-0.877C36.094,24.421,36.06,26.047,35.186,27.406z">
    </path>
    <path fill="#bcbcbc"
        d="M23.258,19.647c-0.264-0.277-0.528-0.555-0.793-0.832c-0.102-0.107-0.212-0.219-0.355-0.255	c-0.117-0.03-0.237,0.025-0.358,0.022c-1.318-0.035-2.068,0.135-3.303,0.402c-0.448,0.097-0.903,0.197-1.304,0.418	c-0.433,0.239-0.778,0.605-1.116,0.965c-1.695,1.808-3.704,3.794-5.4,5.602c0.907,1.046,1.793,2.111,2.657,3.193	c0.126,0.158,0.293,0.333,0.492,0.3c0.109-0.018,0.197-0.096,0.278-0.171c3.287-3.028,6.096-5.741,9.221-8.936	c0.086-0.088,0.176-0.185,0.188-0.307C23.481,19.894,23.365,19.76,23.258,19.647z">
    </path>
    <path fill="#010101"
        d="M23.611,19.293c-0.372-0.391-0.812-1.08-1.369-1.216c-0.287-0.07-0.639-0.003-0.934,0	c-0.324,0.003-0.647,0.022-0.969,0.058c-1.194,0.132-2.708,0.304-3.712,1.006c-0.565,0.395-1.013,0.94-1.485,1.436	c-0.528,0.554-1.061,1.104-1.596,1.652c-1.096,1.124-2.196,2.243-3.271,3.386c-0.195,0.207-0.182,0.497,0,0.707	c0.64,0.739,1.27,1.486,1.889,2.243c0.379,0.463,0.894,1.458,1.614,1.397c0.335-0.028,0.571-0.264,0.807-0.479	c0.348-0.317,0.692-0.639,1.036-0.96c0.67-0.624,1.337-1.251,2-1.882c1.306-1.243,2.598-2.501,3.874-3.774	c0.632-0.63,1.26-1.264,1.885-1.901C23.92,20.416,24.175,19.937,23.611,19.293z M16.914,25.935	c-0.495,0.471-0.993,0.941-1.492,1.408c-0.283,0.265-0.566,0.529-0.85,0.792c-0.219,0.203-0.51,0.619-0.782,0.723	c-0.046,0.018-0.064,0.031-0.074,0.041c0.002-0.015-0.008-0.04-0.077-0.09c-0.149-0.108-0.268-0.334-0.383-0.476	c-0.23-0.285-0.462-0.569-0.696-0.852c-0.414-0.502-0.837-0.996-1.261-1.49c1.725-1.825,3.486-3.616,5.228-5.425	c0.897-0.932,1.996-1.121,3.227-1.342c0.59-0.106,1.172-0.137,1.771-0.147c0.267-0.004,0.381-0.031,0.586,0.091	c0.285,0.169,0.561,0.589,0.793,0.832C23.022,20.135,17.468,25.408,16.914,25.935z">
    </path>
    <path fill="#010101"
        d="M21.534,30.425c-1.328-1.262-2.655-2.524-3.983-3.786c-0.466-0.443-1.175,0.263-0.707,0.707	c1.328,1.262,2.655,2.524,3.983,3.786C21.294,31.575,22.002,30.869,21.534,30.425z">
    </path>
    <path fill="#010101"
        d="M24.13,34.603c0.986,1.106,2.016,2.173,3.004,3.277c0.815,0.911,1.736,2.024,3.053,2.109	c0.631,0.04,1.202-0.257,1.638-0.694c0.418-0.419,0.819-0.956,0.769-1.578c-0.05-0.619-0.468-1.105-0.866-1.546	c-0.48-0.532-0.975-1.05-1.48-1.559c-0.569-0.573-1.151-1.133-1.739-1.687c-0.279-0.262-0.559-0.523-0.84-0.783	c-0.212-0.196-0.431-0.44-0.694-0.569c-0.576-0.281-1.084,0.581-0.505,0.863c0.23,0.112,0.412,0.339,0.598,0.51	c0.281,0.26,0.56,0.52,0.839,0.783c0.553,0.521,1.099,1.049,1.635,1.589c0.538,0.542,1.071,1.093,1.577,1.666	c0.187,0.212,0.458,0.49,0.483,0.789c0.024,0.281-0.221,0.533-0.398,0.725c-0.471,0.51-1.009,0.617-1.628,0.286	c-0.616-0.329-1.085-0.887-1.543-1.399c-1.051-1.176-2.144-2.313-3.193-3.49C24.408,33.414,23.703,34.123,24.13,34.603L24.13,34.603	z">
    </path>
    <path fill="#010101"
        d="M24.092,28.346c-0.527-0.425-1.056-0.851-1.529-1.337c-0.223-0.229-0.428-0.474-0.643-0.711	c-0.484-0.536-0.974-1.067-1.453-1.607c-0.103-0.116-0.206-0.233-0.307-0.352c-0.018-0.022-0.041-0.051-0.064-0.077	c0,0.001,0.001,0.001,0.001,0.002c-0.002-0.001-0.003,0.004-0.003,0.012c-0.069-0.154-0.209-0.275-0.429-0.276	c-0.396-0.001-0.621,0.444-0.427,0.772c0.058,0.098,0.141,0.187,0.215,0.274c0.222,0.263,0.455,0.518,0.686,0.774	c0.46,0.51,0.93,1.011,1.381,1.528c0.557,0.638,1.207,1.174,1.864,1.704c0.21,0.169,0.502,0.205,0.707,0	C24.267,28.878,24.303,28.516,24.092,28.346z M20.016,24.853c0,0,0,0.001-0.001,0.001c-0.001,0-0.002,0.001-0.003,0.001	C20.014,24.855,20.015,24.854,20.016,24.853z M20.139,24.557c0.001-0.013,0.006-0.026,0.007-0.039	c0.003,0.006,0.004,0.006,0.006,0.009C20.147,24.537,20.143,24.547,20.139,24.557z">
    </path>
    <path fill="#010101"
        d="M13.724,22.746c-0.174-0.185-0.296-0.344-0.428-0.561c-0.114-0.188-0.235-0.382-0.269-0.576	c0.011,0.063,0.022-0.071,0.003-0.015c-0.015,0.044,0.045-0.072,0.054-0.085c0.062-0.093,0.134-0.177,0.206-0.266	c0.167-0.203,0.344-0.399,0.529-0.587c0.155-0.157,0.342-0.35,0.497-0.47c0.027-0.021,0.143-0.085,0.146-0.091	c-0.005,0.012-0.083-0.015-0.028-0.005c0.02,0.004,0.039,0.01,0.058,0.017c-0.048-0.022-0.056-0.025-0.023-0.009	c0.047,0.024,0.091,0.054,0.136,0.081c0.084,0.051-0.031-0.031,0.055,0.039c0.039,0.033,0.078,0.066,0.117,0.1	c0.078,0.069,0.154,0.141,0.23,0.211c0.167,0.155,0.338,0.31,0.533,0.429c0.231,0.14,0.549,0.051,0.684-0.179	c0.139-0.237,0.052-0.544-0.179-0.684c-0.017-0.01-0.154-0.108-0.073-0.044c-0.05-0.039-0.098-0.082-0.146-0.125	c-0.102-0.092-0.201-0.188-0.303-0.28c-0.219-0.197-0.448-0.384-0.727-0.489c-0.698-0.262-1.289,0.384-1.729,0.837	c-0.22,0.227-0.428,0.466-0.623,0.714c-0.23,0.293-0.445,0.585-0.41,0.978c0.03,0.338,0.2,0.663,0.368,0.952	c0.171,0.294,0.382,0.567,0.614,0.815c0.185,0.197,0.52,0.187,0.707,0C13.92,23.257,13.909,22.944,13.724,22.746L13.724,22.746z">
    </path>
</svg>