<?xml version="1.0" encoding="UTF-8" standalone="no" ?>
<!DOCTYPE svg PUBLIC "-//W3C//DTD SVG 1.1//EN" "http://www.w3.org/Graphics/SVG/1.1/DTD/svg11.dtd">
<svg xmlns="http://www.w3.org/2000/svg" xmlns:xlink="http://www.w3.org/1999/xlink" version="1.1" width="1080" height="1080" viewBox="0 0 1080 1080" xml:space="preserve">
<desc>Created with Fabric.js 5.2.4</desc>
<defs>
</defs>
<g transform="matrix(1 0 0 1 540 540)" id="754a03c7-d841-49aa-a43d-a6424f6352ca"  >
<rect style="stroke: none; stroke-width: 1; stroke-dasharray: none; stroke-linecap: butt; stroke-dashoffset: 0; stroke-linejoin: miter; stroke-miterlimit: 4; fill: rgb(255,255,255); fill-rule: nonzero; opacity: 1; visibility: hidden;" vector-effect="non-scaling-stroke"  x="-540" y="-540" rx="0" ry="0" width="1080" height="1080" />
</g>
<g transform="matrix(1 0 0 1 540 540)" id="d28f9fec-fe42-493a-bc21-9f30e82b1c0b"  >
</g>
<g transform="matrix(0.64 0 0 0.61 539.61 516.07)"  >
<path style="stroke: none; stroke-width: 1; stroke-dasharray: none; stroke-linecap: butt; stroke-dashoffset: 0; stroke-linejoin: miter; stroke-miterlimit: 4; fill: rgb(255,255,255); fill-rule: nonzero; opacity: 1;" vector-effect="non-scaling-stroke"  transform=" translate(-426.71, -768.09)" d="M 818.004 32.205 L 35.42500000000007 32.205 L 35.42500000000007 1503.9679999999998 L 818.003 1503.9679999999998 L 818.003 32.20499999999993 z" stroke-linecap="round" />
</g>
<g transform="matrix(0.64 0 0 0.64 385.89 181.4)"  >
<path style="stroke: none; stroke-width: 1; stroke-dasharray: none; stroke-linecap: butt; stroke-dashoffset: 0; stroke-linejoin: miter; stroke-miterlimit: 4; fill: rgb(79,130,227); fill-rule: evenodd; opacity: 1;" vector-effect="non-scaling-stroke"  transform=" translate(-186.79, -210.94)" d="M 139.721 189.67 L 139.473 189.67 L 185.394 305.947 L 234.12 189.724 L 233.875 189.724 C 237.363 181.73499999999999 238.831 172.98499999999999 238.155 164.26999999999998 C 237.479 155.55399999999997 234.674 147.14999999999998 229.994 139.819 C 225.315 132.488 218.912 126.46399999999998 211.367 122.29399999999998 C 203.821 118.12299999999998 195.374 115.93899999999998 186.78799999999998 115.93899999999998 C 178.20199999999997 115.93899999999998 169.755 118.12299999999998 162.20899999999997 122.29399999999998 C 154.66299999999998 126.46399999999998 148.26099999999997 132.48799999999997 143.58199999999997 139.819 C 138.90299999999996 147.15 136.09799999999996 155.55499999999998 135.42099999999996 164.26999999999998 C 134.74499999999998 172.98499999999999 136.21299999999997 181.73499999999999 139.70099999999996 189.724 z M 186.798 141.03199999999998 C 192.07 141.028 197.223 142.617 201.606 145.59699999999998 C 205.992 148.57699999999997 209.409 152.814 211.428 157.772 C 213.45 162.73 213.97899999999998 168.18699999999998 212.95499999999998 173.453 C 211.928 178.718 209.39 183.555 205.664 187.353 C 201.938 191.15 197.19099999999997 193.73600000000002 192.01899999999998 194.785 C 186.84999999999997 195.834 181.49099999999999 195.297 176.62199999999999 193.244 C 171.749 191.191 167.589 187.712 164.658 183.249 C 161.731 178.786 160.165 173.53799999999998 160.165 168.17 C 160.165 164.60899999999998 160.851 161.082 162.18699999999998 157.79 C 163.52399999999997 154.499 165.48199999999997 151.50799999999998 167.95499999999998 148.988 C 170.42499999999998 146.468 173.35899999999998 144.468 176.589 143.10399999999998 C 179.819 141.73899999999998 183.281 141.035 186.779 141.033 L 186.798 141.033 z" stroke-linecap="round" />
</g>
<g transform="matrix(0.64 0 0 0.64 539.61 511.31)"  >
<path style="stroke: none; stroke-width: 1; stroke-dasharray: none; stroke-linecap: butt; stroke-dashoffset: 0; stroke-linejoin: miter; stroke-miterlimit: 4; fill: rgb(237,237,237); fill-rule: nonzero; opacity: 1;" vector-effect="non-scaling-stroke"  transform=" translate(-426.71, -726.22)" d="M 269.706 1040.105 L 368.71000000000004 971.4830000000001 L 727.273 1191.796 L 742.255 1186.07 L 380.121 963.483 L 524.731 863.1129999999999 L 504.87 849.7829999999999 L 421.942 907.3719999999998 L 301.303 833.2269999999999 L 389.918 772.7849999999999 L 370.701 759.9259999999998 L 282.015 820.6929999999999 L 282.015 821.3789999999999 L 35.42499999999998 669.8609999999999 L 35.42499999999998 695.6249999999999 L 201.277 797.8659999999999 L 128.201 844.1699999999998 L 35.425 787.4089999999999 L 35.425 801.9009999999998 L 116.163 851.6989999999998 L 35.425 901.7359999999999 L 35.425 916.2279999999998 L 139.022 852.3299999999998 L 140.22299999999998 851.5539999999999 L 213.27999999999997 805.2529999999998 L 281.06499999999994 846.9129999999998 L 401.90099999999995 921.1679999999998 L 220.24299999999997 1047.3269999999998 L 35.424999999999955 919.4489999999997 L 35.424999999999955 933.9409999999997 L 209.11899999999994 1055.0569999999998 L 35.424999999999955 1175.4779999999998 L 35.424999999999955 1201.2419999999997 L 252.28599999999994 1052.2039999999997 L 817.9319999999999 1420.2349999999997 L 817.9319999999999 1393.6339999999996 L 272.80999999999995 1039.0039999999995 z M 817.933 292.626 L 730.593 353.31899999999996 L 609.702 279.11799999999994 L 652.76 248.77999999999994 L 653.514 232.65399999999994 L 597.896 271.8589999999999 L 511.77699999999993 219.01999999999992 L 787.4669999999999 32.20499999999993 L 765.2009999999999 32.20499999999993 L 500.6149999999999 212.12199999999993 L 387.72699999999986 142.86799999999994 L 550.9959999999999 32.20499999999994 L 528.8199999999998 32.20499999999994 L 376.31699999999984 135.89699999999993 L 207.43199999999985 32.20499999999994 L 164.85699999999986 32.20499999999994 L 356.16699999999986 149.58499999999992 L 279.41299999999984 201.82799999999992 L 268.2189999999998 208.34699999999992 L 491.7719999999998 346.69499999999994 L 354.6979999999998 443.37699999999995 L 366.2339999999998 450.81999999999994 L 503.5589999999998 353.9699999999999 L 623.1389999999998 428.01199999999994 L 523.4909999999998 497.26499999999993 L 645.3349999999998 572.135 L 402.5609999999998 737.492 L 423.4939999999998 750.3739999999999 L 665.6779999999998 584.6699999999998 L 817.8779999999997 678.1929999999999 L 817.8779999999997 651.9559999999999 L 685.8989999999997 570.8349999999999 L 817.8779999999997 480.83199999999994 L 817.8779999999997 454.10499999999996 L 665.4659999999997 558.358 L 559.0899999999997 492.84099999999995 L 727.5789999999997 377.573 L 818.0039999999997 433.068 L 818.0039999999997 406.937 L 747.6559999999997 363.81100000000004 L 817.9339999999997 315.74 L 817.9339999999997 292.62600000000003 z M 502.644 339.018 L 290.591 208.69099999999997 L 367.49 156.59199999999998 L 578.052 285.837 z M 634.533 420.06399999999996 L 514.466 346.28 L 589.822 293.096 L 710.552 367.136 z" stroke-linecap="round" />
</g>
<g transform="matrix(0.64 0 0 0.64 574.47 493.32)"  >
<linearGradient id="SVGID_11" gradientUnits="userSpaceOnUse" gradientTransform="matrix(1 0 0 -1 3908.15 6300.6)"  x1="-3775.3901" y1="5849.9912" x2="-2844.4727" y2="5179.0117">
<stop offset="0%" style="stop-color:rgb(99,173,143);stop-opacity: 1"/>
<stop offset="100%" style="stop-color:rgb(255,255,255);stop-opacity: 1"/>
</linearGradient>
<path style="stroke: none; stroke-width: 1; stroke-dasharray: none; stroke-linecap: butt; stroke-dashoffset: 0; stroke-linejoin: miter; stroke-miterlimit: 4; fill: url(#SVGID_11); fill-rule: nonzero; opacity: 1;" vector-effect="non-scaling-stroke"  transform=" translate(-481.46, -698.85)" d="M 818.004 997.031 L 818.004 1072.423 L 230.11400000000003 681.398 L 393.547 530.6890000000001 L 144.92200000000003 325.2690000000001 L 469.122 532.4330000000001 L 312.706 680.5890000000002 L 818.004 996.7410000000002 z" stroke-linecap="round" />
</g>
</svg>